Coordinates
version=1
nRows=8
nColumns=34
inDegrees=yes

Units are S.I. units (second, meters, Newtons, ...)
Angles are in degrees.

endheader
time	pelvis_tilt	pelvis_list	pelvis_rotation	pelvis_tx	pelvis_ty	pelvis_tz	hip_flexion_r	hip_adduction_r	hip_rotation_r	knee_angle_r	ankle_angle_r	subtalar_angle_r	mtp_angle_r	hip_flexion_l	hip_adduction_l	hip_rotation_l	knee_angle_l	socket_flexion	socket_adduction	socket_rotation	socket_tx	socket_ty	socket_tz	pros_ankle_rx	pros_ankle_ry	pros_ankle_rz	pros_ankle_tx	pros_ankle_ty	pros_ankle_tz	foot_flex	lumbar_extension	lumbar_bending	lumbar_rotation
      0.90416667	      1.62318492	     -6.75615422	      1.95735119	      0.46700458	      1.04846477	      0.36767725	      8.61948735	     10.79242678	     -7.34626403	    -19.99710153	      8.18944456	     13.57420873	     14.43783897	     21.37930799	    -13.82490567	     -0.94062557	    -71.28710956	      0.00000000	      0.00000000	      0.00000000	      0.00000000	      0.03499756	      0.00000000	      0.00000000	      0.00000000	      0.00000000	      0.00000000	      0.00000000	      0.00000000	     -1.18400813	    -20.83774849	      2.14941355	      0.24488760
      0.90833333	      1.58975171	     -6.59792992	      1.91375431	      0.47198735	      1.04967665	      0.36761819	      8.18148194	     10.61378660	     -7.34356388	    -19.70904060	      8.11183882	     13.74401592	     14.52135905	     21.83356096	    -13.49239005	     -0.78745791	    -70.79671159	      0.00000000	      0.00000000	      0.00000000	      0.00000000	      0.03481906	      0.00000000	      0.00000000	      0.00000000	      0.00000000	      0.00000000	      0.00000000	      0.00000000	     -1.19103374	    -20.78339277	      1.94101430	      0.31538201
      0.91250000	      1.57882265	     -6.43929699	      1.87214557	      0.47703012	      1.05092527	      0.36754542	      7.71974509	     10.41381830	     -7.44337791	    -19.41111526	      7.95817713	     14.02986199	     14.68718408	     22.21043229	    -13.15916112	     -0.64925181	    -70.22182859	      0.00000000	      0.00000000	      0.00000000	      0.00000000	      0.03446485	      0.00000000	      0.00000000	      0.00000000	      0.00000000	      0.00000000	      0.00000000	      0.00000000	     -1.19069149	    -20.73297634	      1.71637384	      0.37071513
      0.91666667	      1.51837953	     -6.35156000	      1.76728509	      0.48177190	      1.05198118	      0.36747873	      7.39349076	     10.30489770	     -7.40041944	    -19.26070100	      7.97102741	     14.13426654	     14.72931640	     22.67326198	    -12.91248452	     -0.53004490	    -69.67942777	      0.00000000	      0.00000000	      0.00000000	      0.00000000	      0.03415718	      0.00000000	      0.00000000	      0.00000000	      0.00000000	      0.00000000	      0.00000000	      0.00000000	     -1.13638307	    -20.82231354	      1.67740304	      0.41133793
      0.92083333	      1.81815254	     -6.06231495	      1.82017364	      0.48703683	      1.05376242	      0.36721913	      6.57796521	      9.87141905	     -7.95751051	    -18.95172638	      7.75610119	     15.39042250	     16.27735772	     22.54659740	    -12.40400449	     -0.39288272	    -68.83083426	      0.00000000	      0.00000000	      0.00000000	      0.00000000	      0.03331860	      0.00000000	      0.00000000	      0.00000000	      0.00000000	      0.00000000	      0.00000000	      0.00000000	     -1.20899764	    -21.03169025	      1.28967488	      0.39881419
      0.92500000	      1.72772518	     -5.99049131	      1.70697978	      0.49173182	      1.05476474	      0.36720864	      6.28945956	      9.78314262	     -7.90795331	    -18.79648539	      7.76809641	     15.43894218	     16.29613691	     23.02493592	    -12.17621085	     -0.27248987	    -68.22465159	      0.00000000	      0.00000000	      0.00000000	      0.00000000	      0.03305814	      0.00000000	      0.00000000	      0.00000000	      0.00000000	      0.00000000	      0.00000000	      0.00000000	     -1.13173137	    -21.11227940	      1.25865690	      0.44424612
      0.92916667	      1.63565245	     -5.88168718	      1.63223036	      0.49650344	      1.05582838	      0.36714732	      5.94419282	      9.66097283	     -7.83355338	    -18.53411712	      7.73945358	     15.53515120	     16.31617262	     23.47356848	    -11.88150892	     -0.10912435	    -67.54376911	      0.00000000	      0.00000000	      0.00000000	      0.00000000	      0.03279803	      0.00000000	      0.00000000	      0.00000000	      0.00000000	      0.00000000	      0.00000000	      0.00000000	     -1.10908605	    -21.09280414	      1.14350005	      0.50911918
      0.93333333	      1.66047949	     -5.66352207	      1.52399303	      0.50188535	      1.05726157	      0.36725524	      5.32394275	      9.41174721	     -7.87869422	    -18.03493587	      7.26274363	     15.90981849	     16.48100921	     23.56326561	    -11.51967311	     -0.09750553	    -66.58537661	      0.00000000	      0.00000000	      0.00000000	      0.00000000	      0.03196688	      0.00000000	      0.00000000	      0.00000000	      0.00000000	      0.00000000	      0.00000000	      0.00000000	     -1.19779473	    -20.73874080	      0.73557040	      0.65624647
